# xmcd
#
# Track frame offsets:
#	150
#	14989
#	31637
#	47259
#	63254
#	81909
#	101013
#	118472
#	133297
#	151001
#	169035
#	182422
#	200002
#	216298
#	232020
#
# Disc length: 3382 seconds
#
# Revision: 1
# Processed by: cddbd v1.5.2PL0 Copyright (c) Steve Scherf et al.
# Submitted via: audiograbber 1.83.01
#
DISCID=cf0d340f
DTITLE=Original Soundtrack - The Best Of Me
DYEAR=2014
DGENRE=Soundtrack
TTITLE0=Lady Antebellum - I Did With You
TTITLE1=Hunter Hayes - Dream Girl
TTITLE2=Shel and Gareth Dunlop - Hold On
TTITLE3=Colbie Caillat - In Love Again
TTITLE4=Thomas Rhett - The Way Things Go
TTITLE5=Thompson Square - Borrowed Time
TTITLE6=Kip Moore - Lead Me
TTITLE7=Kacey Musgraves - Love Is a Liar
TTITLE8=Lady Antebellum - Falling For You
TTITLE9=Eric Paislay - Rain From Heaven
TTITLE10=David Nail - All the Way
TTITLE11=Eli Young Band - Unchanged
TTITLE12=Cowboy Junkies - Sweet Jane
TTITLE13=Phoebe Hoffman - Crossroads
TTITLE14=Aaron Zigman - A Rose and a Kiss
EXTD=
EXTT0=
EXTT1=
EXTT2=
EXTT3=
EXTT4=
EXTT5=
EXTT6=
EXTT7=
EXTT8=
EXTT9=
EXTT10=
EXTT11=
EXTT12=
EXTT13=
EXTT14=
PLAYORDER=
